<svg xmlns="http://www.w3.org/2000/svg" version="1.2" width="100" height="100" id="svg2"><path id="rect4138" fill="#f2f2f2" fill-opacity="1" stroke="none" stroke-width="1" stroke-miterlimit="4" stroke-dasharray="none" stroke-opacity="1" d="M0 0h100v100H0z"/><path d="M46.5 45.999c.827 0 1.5.673 1.5 1.5s-.673 1.5-1.5 1.5-1.5-.673-1.5-1.5.673-1.5 1.5-1.5m0-1a2.5 2.5 0 100 5 2.5 2.5 0 000-5zm7.5 5c.45.051 1.27 1.804 1.779 4.001H44.387c.434-1.034 1.055-2.001 1.612-2.001.806 0 1.125.185 1.53.42.447.258 1.006.58 1.97.58 1.138 0 1.942-.885 2.653-1.666.627-.687 1.218-1.334 1.848-1.334m0-1c-2 0-3 3-4.5 3s-1.499-1-3.5-1c-2 0-3.001 4-3.001 4H57s-1-6-3-6zM60 44a2 2 0 00-2-2H42a2 2 0 00-2 2v12a2 2 0 002 2h16a2 2 0 002-2V44zm-2 12H42V44h16.003L58 56z" id="path4" fill="#e6e6e6"/></svg>